<svg xmlns="http://www.w3.org/2000/svg" width="238.66" height="109.568" viewBox="0 0 238.66 109.568">
  <g id="Group_2" data-name="Group 2" transform="translate(-5.304 -33.337)">
    <path id="_" data-name="&lt;" d="M37.83-76.08v12.055L-22.377-36.685,37.83-9.344V2.563L-37.83-31.544V-41.825Zm-2,10.766V-72.98L-35.83-40.535v7.7L35.83-.533V-8.056L-27.213-36.685Z" transform="translate(43.134 137.601)" fill="#a2a2a2"/>
    <path id="_2" data-name="&gt;" d="M-37.83,2.563V-9.344L22.377-36.685-37.83-64.026V-76.08L37.83-41.825v10.281Zm2-10.619V-.533l71.66-32.3v-7.7L-35.83-72.98v7.665L27.213-36.685Z" transform="translate(206.134 137.601)" fill="#a2a2a2"/>
    <path id="_3" data-name="/" d="M15.376-106.264H28.04L-15.377,3.3H-27.894Zm9.72,2h-8.36L-24.954,1.3h8.219Z" transform="translate(128.134 139.601)" fill="#a2a2a2"/>
  </g>
</svg>
